<svg xmlns="http://www.w3.org/2000/svg" viewBox="0 0 1050 500"><rect width="1050" height="500" rx="16" fill="#fffdf6"/><text x="42" y="48" font-family="Arial" font-size="22" font-weight="700" fill="#183a3b">UML · Clases del sistema de biblioteca</text><g stroke="#24675b" stroke-width="2" fill="none"><path d="M250 175 H390"/><path d="M610 175 H750"/><path d="M500 260 V345"/></g><g font-family="Arial" fill="#183a3b"><g><rect x="40" y="105" width="210" height="155" rx="6" fill="#fffefa" stroke="#24675b" stroke-width="2"/><path d="M40 145 H250 M40 210 H250" stroke="#24675b"/><text x="58" y="132" font-weight="700" font-size="16">Estudiante</text><text x="55" y="171" font-size="13">idEstudiante: String</text><text x="55" y="194" font-size="13">nombre: String</text><text x="55" y="235" font-size="12">consultarCatalogo()</text></g><g><rect x="390" y="105" width="220" height="155" rx="6" fill="#fffefa" stroke="#24675b" stroke-width="2"/><path d="M390 145 H610 M390 210 H610" stroke="#24675b"/><text x="408" y="132" font-weight="700" font-size="16">Prestamo</text><text x="405" y="171" font-size="13">idPrestamo: Integer</text><text x="405" y="194" font-size="13">fecha: Date</text><text x="405" y="235" font-size="12">registrarDevolucion()</text></g><g><rect x="750" y="105" width="245" height="155" rx="6" fill="#fffefa" stroke="#24675b" stroke-width="2"/><path d="M750 145 H995 M750 210 H995" stroke="#24675b"/><text x="768" y="132" font-weight="700" font-size="16">Ejemplar</text><text x="765" y="171" font-size="13">idEjemplar: Integer</text><text x="765" y="194" font-size="13">estado: EstadoEjemplar</text><text x="765" y="235" font-size="12">cambiarEstado()</text></g><g><rect x="390" y="345" width="220" height="120" rx="6" fill="#fffefa" stroke="#24675b" stroke-width="2"/><path d="M390 385 H610 M390 430 H610" stroke="#24675b"/><text x="408" y="372" font-weight="700" font-size="16">Titulo</text><text x="405" y="412" font-size="13">isbn: String</text><text x="405" y="452" font-size="13">nombre: String</text></g></g><g font-family="Arial" font-size="12" fill="#24675b"><text x="270" y="164">1</text><text x="345" y="164">0..*</text><text x="630" y="164">0..*</text><text x="710" y="164">1</text><text x="510" y="282">0..*</text><text x="510" y="330">1</text></g><text x="42" y="486" font-family="Arial" font-size="13" fill="#52665d">Estudiante realiza préstamos · cada préstamo corresponde a un ejemplar · varios ejemplares corresponden a un título.</text></svg>